<?xml version="1.0" encoding="us-ascii" standalone="no"?><svg xmlns="http://www.w3.org/2000/svg" xmlns:xlink="http://www.w3.org/1999/xlink" contentStyleType="text/css" height="578px" preserveAspectRatio="none" style="width:747px;height:578px;background:#FFFFFF;" version="1.1" viewBox="0 0 747 578" width="747px" zoomAndPan="magnify"><defs/><g><!--class Store--><g id="elem_Store"><rect codeLine="2" fill="#F1F1F1" height="167.6426" id="Store" rx="2.5" ry="2.5" style="stroke:#181818;stroke-width:0.5;" width="108" x="320.46" y="7"/><ellipse cx="354.36" cy="23" fill="#ADD1B2" rx="11" ry="11" style="stroke:#181818;stroke-width:1.0;"/><path d="M358.485,26.9531 Q358.1256,27.5781 357.2819,28.2188 Q355.8756,29.2344 353.1412,29.2344 Q350.9537,29.2344 349.485,27.7656 Q347.7819,26.0625 347.7819,22.875 Q347.7819,19.9375 349.4694,18.1406 Q351.0162,16.5156 353.235,16.5156 Q355.11,16.5156 356.0944,16.8125 Q357.0787,17.1094 357.0787,17.1094 Q357.0787,17.1094 357.0787,16.5469 L358.0944,16.4531 L358.2506,20.5156 L356.9225,20.6406 Q356.11,17.0469 353.3756,17.0469 Q353.3756,17.0469 352.7819,17.3281 Q351.8756,17.6719 351.36,18.2188 Q349.985,19.7656 349.9694,22.9063 Q349.9537,25.6875 351.485,27.25 Q352.7819,28.5781 353.61,28.5781 Q355.6412,28.5781 357.8287,26.0156 L358.485,26.9531 Z " fill="#000000"/><text fill="#000000" font-family="sans-serif" font-size="14" lengthAdjust="spacing" textLength="34" x="372.56" y="29.894">Store</text><line style="stroke:#181818;stroke-width:0.5;" x1="321.46" x2="427.46" y1="39" y2="39"/><text fill="#000000" font-family="sans-serif" font-size="14" lengthAdjust="spacing" textLength="89" x="326.46" y="59.8643">Video[] videos</text><text fill="#000000" font-family="sans-serif" font-size="14" lengthAdjust="spacing" textLength="96" x="326.46" y="79.8047">Rental[] rentals</text><text fill="#000000" font-family="sans-serif" font-size="14" lengthAdjust="spacing" textLength="61" x="326.46" y="99.7451">int money</text><line style="stroke:#181818;stroke-width:0.5;" x1="321.46" x2="427.46" y1="106.8213" y2="106.8213"/><text fill="#000000" font-family="sans-serif" font-size="14" lengthAdjust="spacing" textLength="93" x="326.46" y="127.6855">createVideos()</text><text fill="#000000" font-family="sans-serif" font-size="14" lengthAdjust="spacing" textLength="82" x="326.46" y="147.626">trackRental()</text><text fill="#000000" font-family="sans-serif" font-size="14" lengthAdjust="spacing" textLength="86" x="326.46" y="167.5664">updatePrice()</text></g><!--class Video--><g id="elem_Video"><rect codeLine="11" fill="#F1F1F1" height="87.8809" id="Video" rx="2.5" ry="2.5" style="stroke:#181818;stroke-width:0.5;" width="117" x="315.96" y="484"/><ellipse cx="353.01" cy="500" fill="#ADD1B2" rx="11" ry="11" style="stroke:#181818;stroke-width:1.0;"/><path d="M357.135,503.9531 Q356.7756,504.5781 355.9319,505.2188 Q354.5256,506.2344 351.7913,506.2344 Q349.6038,506.2344 348.135,504.7656 Q346.4319,503.0625 346.4319,499.875 Q346.4319,496.9375 348.1194,495.1406 Q349.6663,493.5156 351.885,493.5156 Q353.76,493.5156 354.7444,493.8125 Q355.7288,494.1094 355.7288,494.1094 Q355.7288,494.1094 355.7288,493.5469 L356.7444,493.4531 L356.9006,497.5156 L355.5725,497.6406 Q354.76,494.0469 352.0256,494.0469 Q352.0256,494.0469 351.4319,494.3281 Q350.5256,494.6719 350.01,495.2188 Q348.635,496.7656 348.6194,499.9063 Q348.6038,502.6875 350.135,504.25 Q351.4319,505.5781 352.26,505.5781 Q354.2913,505.5781 356.4788,503.0156 L357.135,503.9531 Z " fill="#000000"/><text fill="#000000" font-family="sans-serif" font-size="14" lengthAdjust="spacing" textLength="36" x="371.91" y="506.894">Video</text><line style="stroke:#181818;stroke-width:0.5;" x1="316.96" x2="431.96" y1="516" y2="516"/><text fill="#000000" font-family="sans-serif" font-size="14" lengthAdjust="spacing" textLength="105" x="321.96" y="536.8643">string categories</text><text fill="#000000" font-family="sans-serif" font-size="14" lengthAdjust="spacing" textLength="50" x="321.96" y="556.8047">int price</text><line style="stroke:#181818;stroke-width:0.5;" x1="316.96" x2="431.96" y1="563.8809" y2="563.8809"/></g><g id="elem_GMN5"><path d="M468.46,504.5 L468.46,524 L433.31,528 L468.46,532 L468.46,551.5322 A0,0 0 0 0 468.46,551.5322 L740.46,551.5322 A0,0 0 0 0 740.46,551.5322 L740.46,514.5 L730.46,504.5 L468.46,504.5 A0,0 0 0 0 468.46,504.5 " fill="#FEFFDD" style="stroke:#181818;stroke-width:0.5;"/><path d="M730.46,504.5 L730.46,514.5 L740.46,514.5 L730.46,504.5 " fill="#FEFFDD" style="stroke:#181818;stroke-width:0.5;"/><text fill="#000000" font-family="sans-serif" font-size="13" lengthAdjust="spacing" textLength="247" x="474.46" y="525.1597">Categories including New Release, Drama,</text><text fill="#000000" font-family="sans-serif" font-size="13" lengthAdjust="spacing" textLength="179" x="474.46" y="543.6758">Comedy, Romance, and Horror</text></g><!--class Customer--><g id="elem_Customer"><rect codeLine="20" fill="#F1F1F1" height="167.6426" id="Customer" rx="2.5" ry="2.5" style="stroke:#181818;stroke-width:0.5;" width="101" x="323.96" y="236"/><ellipse cx="342.56" cy="252" fill="#ADD1B2" rx="11" ry="11" style="stroke:#181818;stroke-width:1.0;"/><path d="M346.685,255.9531 Q346.3256,256.5781 345.4819,257.2188 Q344.0756,258.2344 341.3413,258.2344 Q339.1538,258.2344 337.685,256.7656 Q335.9819,255.0625 335.9819,251.875 Q335.9819,248.9375 337.6694,247.1406 Q339.2163,245.5156 341.435,245.5156 Q343.31,245.5156 344.2944,245.8125 Q345.2788,246.1094 345.2788,246.1094 Q345.2788,246.1094 345.2788,245.5469 L346.2944,245.4531 L346.4506,249.5156 L345.1225,249.6406 Q344.31,246.0469 341.5756,246.0469 Q341.5756,246.0469 340.9819,246.3281 Q340.0756,246.6719 339.56,247.2188 Q338.185,248.7656 338.1694,251.9063 Q338.1538,254.6875 339.685,256.25 Q340.9819,257.5781 341.81,257.5781 Q343.8413,257.5781 346.0288,255.0156 L346.685,255.9531 Z " fill="#000000"/><text fill="#000000" font-family="sans-serif" font-size="14" lengthAdjust="spacing" textLength="61" x="357.36" y="258.894">Customer</text><line style="stroke:#181818;stroke-width:0.5;" x1="324.96" x2="423.96" y1="268" y2="268"/><text fill="#000000" font-family="sans-serif" font-size="14" lengthAdjust="spacing" textLength="74" x="329.96" y="288.8643">string name</text><text fill="#000000" font-family="sans-serif" font-size="14" lengthAdjust="spacing" textLength="66" x="329.96" y="308.8047">string type</text><text fill="#000000" font-family="sans-serif" font-size="14" lengthAdjust="spacing" textLength="89" x="329.96" y="328.7451">Video[] videos</text><text fill="#000000" font-family="sans-serif" font-size="14" lengthAdjust="spacing" textLength="71" x="329.96" y="348.6855">int duration</text><line style="stroke:#181818;stroke-width:0.5;" x1="324.96" x2="423.96" y1="355.7617" y2="355.7617"/><text fill="#000000" font-family="sans-serif" font-size="14" lengthAdjust="spacing" textLength="35" x="329.96" y="376.626">rent()</text><text fill="#000000" font-family="sans-serif" font-size="14" lengthAdjust="spacing" textLength="48" x="329.96" y="396.5664">return()</text></g><path d="M97.96,281.5 L97.96,310.0161 A0,0 0 0 0 97.96,310.0161 L288.96,310.0161 A0,0 0 0 0 288.96,310.0161 L288.96,299.7581 L327.96,369.7319 L288.96,291.7581 L288.96,291.5 L278.96,281.5 L97.96,281.5 A0,0 0 0 0 97.96,281.5 " fill="#FEFFDD" style="stroke:#181818;stroke-width:0.5;"/><path d="M278.96,281.5 L278.96,291.5 L288.96,291.5 L278.96,281.5 " fill="#FEFFDD" style="stroke:#181818;stroke-width:0.5;"/><text fill="#000000" font-family="sans-serif" font-size="13" lengthAdjust="spacing" textLength="170" x="103.96" y="302.1597">A giant rent function for types</text><path d="M97.96,320.0161 L97.96,348.5322 A0,0 0 0 0 97.96,348.5322 L223.96,348.5322 A0,0 0 0 0 223.96,348.5322 L223.96,338.2742 L327.96,389.6724 L223.96,330.2742 L223.96,330.0161 L213.96,320.0161 L97.96,320.0161 A0,0 0 0 0 97.96,320.0161 " fill="#FEFFDD" style="stroke:#181818;stroke-width:0.5;"/><path d="M213.96,320.0161 L213.96,330.0161 L223.96,330.0161 L213.96,320.0161 " fill="#FEFFDD" style="stroke:#181818;stroke-width:0.5;"/><text fill="#000000" font-family="sans-serif" font-size="13" lengthAdjust="spacing" textLength="105" x="103.96" y="340.6758">retrun all at a time</text><!--class Rental--><g id="elem_Rental"><rect codeLine="39" fill="#F1F1F1" height="127.7617" id="Rental" rx="2.5" ry="2.5" style="stroke:#181818;stroke-width:0.5;" width="135" x="459.96" y="256"/><ellipse cx="502.86" cy="272" fill="#ADD1B2" rx="11" ry="11" style="stroke:#181818;stroke-width:1.0;"/><path d="M506.985,275.9531 Q506.6256,276.5781 505.7819,277.2188 Q504.3756,278.2344 501.6412,278.2344 Q499.4537,278.2344 497.985,276.7656 Q496.2819,275.0625 496.2819,271.875 Q496.2819,268.9375 497.9694,267.1406 Q499.5162,265.5156 501.735,265.5156 Q503.61,265.5156 504.5944,265.8125 Q505.5787,266.1094 505.5787,266.1094 Q505.5787,266.1094 505.5787,265.5469 L506.5944,265.4531 L506.7506,269.5156 L505.4225,269.6406 Q504.61,266.0469 501.8756,266.0469 Q501.8756,266.0469 501.2819,266.3281 Q500.3756,266.6719 499.86,267.2188 Q498.485,268.7656 498.4694,271.9063 Q498.4537,274.6875 499.985,276.25 Q501.2819,277.5781 502.11,277.5781 Q504.1412,277.5781 506.3287,275.0156 L506.985,275.9531 Z " fill="#000000"/><text fill="#000000" font-family="sans-serif" font-size="14" lengthAdjust="spacing" textLength="41" x="523.06" y="278.894">Rental</text><line style="stroke:#181818;stroke-width:0.5;" x1="460.96" x2="593.96" y1="288" y2="288"/><text fill="#000000" font-family="sans-serif" font-size="14" lengthAdjust="spacing" textLength="112" x="465.96" y="308.8643">int nightsRemains</text><text fill="#000000" font-family="sans-serif" font-size="14" lengthAdjust="spacing" textLength="89" x="465.96" y="328.8047">Video[] videos</text><text fill="#000000" font-family="sans-serif" font-size="14" lengthAdjust="spacing" textLength="123" x="465.96" y="348.7451">Customer customer</text><text fill="#000000" font-family="sans-serif" font-size="14" lengthAdjust="spacing" textLength="113" x="465.96" y="368.6855">bool hasReturned</text><line style="stroke:#181818;stroke-width:0.5;" x1="460.96" x2="593.96" y1="375.7617" y2="375.7617"/></g><!--reverse link Store to Video--><g id="link_Store_Video"><path codeLine="16" d="M302.6593,100.7469 C226.7993,112.4169 109,143.07 48.46,236 C7.71,298.56 6,342.59 48.46,404 C108.85,491.32 239.65,516.72 315.94,524.06 " fill="none" id="Store-backto-Video" style="stroke:#181818;stroke-width:1.0;"/><polygon fill="none" points="320.45,98.01,301.747,94.8166,303.5716,106.6771,320.45,98.01" style="stroke:#181818;stroke-width:1.0;"/><text fill="#000000" font-family="sans-serif" font-size="13" lengthAdjust="spacing" textLength="30" x="49.46" y="326.6597">owns</text><text fill="#000000" font-family="sans-serif" font-size="13" lengthAdjust="spacing" textLength="14" x="293.9548" y="520.1813">20</text></g><!--reverse link Customer to Video--><g id="link_Customer_Video"><path codeLine="36" d="M374.46,422.19 C374.46,449.55 374.46,460.85 374.46,483.96 " fill="none" id="Customer-backto-Video" style="stroke:#181818;stroke-width:1.0;"/><polygon fill="none" points="374.46,404.19,368.46,422.19,380.46,422.19,374.46,404.19" style="stroke:#181818;stroke-width:1.0;"/><text fill="#000000" font-family="sans-serif" font-size="13" lengthAdjust="spacing" textLength="22" x="375.46" y="450.6597">rent</text><text fill="#000000" font-family="sans-serif" font-size="13" lengthAdjust="spacing" textLength="22" x="350.7069" y="473.217">0..3</text></g><!--reverse link Store to Customer--><g id="link_Store_Customer"><path codeLine="37" d="M374.46,193.24 C374.46,212.98 374.46,216.03 374.46,235.77 " fill="none" id="Store-backto-Customer" style="stroke:#181818;stroke-width:1.0;"/><polygon fill="none" points="374.46,175.24,368.46,193.24,380.46,193.24,374.46,175.24" style="stroke:#181818;stroke-width:1.0;"/><text fill="#000000" font-family="sans-serif" font-size="13" lengthAdjust="spacing" textLength="14" x="359.8366" y="225.1653">10</text></g><!--reverse link Store to Rental--><g id="link_Store_Rental"><path codeLine="45" d="M438.6799,187.2765 C457.1599,214.6965 467.49,230.02 484.93,255.89 " fill="none" id="Store-backto-Rental" style="stroke:#181818;stroke-width:1.0;"/><polygon fill="none" points="428.62,172.35,433.7044,190.6298,443.6553,183.9232,428.62,172.35" style="stroke:#181818;stroke-width:1.0;"/></g><!--reverse link Rental to Video--><g id="link_Rental_Video"><path codeLine="46" d="M469.786,398.6593 C445.806,430.9393 427.98,454.95 406.54,483.81 " fill="none" id="Rental-backto-Video" style="stroke:#181818;stroke-width:1.0;"/><polygon fill="none" points="480.52,384.21,464.9696,395.0813,474.6024,402.2373,480.52,384.21" style="stroke:#181818;stroke-width:1.0;"/></g><!--SRC=[TL4zJyCm49rpl-BK2QIsAh1LBAWCJ0W5YGKO3kUIMYHsTNQegi9_v-mqRIN4P9_zllniMWe1dwCNtaFnOYlsh-_ubTO0HSakKgi7aZTwObt4pZlUGM64ANAcX8jBAAAG-HmOQUmtbLu_YJMium-0oLOPhrOXYdKD6iKqNYmVj3S9dz0v4jv-psOukLvC1XukqMzT070-CfQsMKVqzV5kTHH3wqpRLydXaRTOSiiKU8htGXrDySsjVCVLRegbxyWPlI5NuOCNyJ8cNVKXAafEOHrrV1pYRiD_6qjlg7gXQBs38jMMkX2ElRXSGqxUSfs3ZnRBPKB27JQML20DMFVE91MilMIp0AmP4n_-Lqa-e8lq3gbjaI8IHgkvJ-GHVsXtCP_VdFhDGSxBlzBoHyPOpV3B- -6vBdr3ABaZgr_pfv6Zcnb5YW_lMroJSb9ShhIMCyT178PbECgQ0By0]--></g></svg>